<?xml version="1.0" encoding="utf-8"?>
<!-- Generator: Adobe Illustrator 22.0.0, SVG Export Plug-In . SVG Version: 6.00 Build 0)  -->
<svg version="1.1" id="Layer_1" xmlns="http://www.w3.org/2000/svg" xmlns:xlink="http://www.w3.org/1999/xlink" x="0px" y="0px"
	 viewBox="0 0 576 576" style="enable-background:new 0 0 576 576;" xml:space="preserve">
<style type="text/css">
	.st0{fill:none;stroke:#000000;stroke-width:4;stroke-miterlimit:10;}
</style>
<path class="st0" d="M420,144H156c-6.6,0-12-5.4-12-12V47c0-6.6,5.4-12,12-12h264c6.6,0,12,5.4,12,12v85
	C432,138.6,426.6,144,420,144z"/>
<rect x="243" y="81" class="st0" width="89" height="54"/>
<line class="st0" x1="288" y1="135" x2="288" y2="252"/>
<rect x="215" y="252" class="st0" width="145" height="72"/>
<rect x="216" y="432" class="st0" width="145" height="72"/>
<line class="st0" x1="288" y1="324" x2="288" y2="432"/>
<line class="st0" x1="243" y1="108" x2="72" y2="108"/>
<line class="st0" x1="333" y1="108" x2="504" y2="108"/>
<line class="st0" x1="504" y1="106" x2="504" y2="216"/>
<line class="st0" x1="72" y1="106" x2="72" y2="216"/>
<rect x="36" y="216" class="st0" width="72" height="72"/>
<rect x="144" y="171" class="st0" width="72" height="72"/>
<rect x="468" y="216" class="st0" width="72" height="72"/>
<g>
	<path d="M273.3,101.8c0,0,0.1,0,0.1,0v1.7c-0.1,0-0.2,0-0.3,0s-0.1,0-0.2,0c-0.7,0-1.1,0.2-1.4,0.7c-0.1,0.2-0.2,0.6-0.2,1.1v3.1
		h-1.7v-6.4h1.6v1.1c0.3-0.4,0.5-0.7,0.7-0.9C272.3,101.9,272.7,101.8,273.3,101.8C273.3,101.8,273.3,101.8,273.3,101.8z"/>
	<path d="M279.8,107.6c-0.5,0.7-1.4,1-2.5,1s-1.9-0.3-2.5-1s-0.8-1.5-0.8-2.4c0-0.9,0.3-1.7,0.8-2.4c0.5-0.7,1.4-1,2.5-1
		s1.9,0.3,2.5,1c0.5,0.7,0.8,1.5,0.8,2.4C280.6,106.1,280.3,106.9,279.8,107.6z M278.4,106.6c0.3-0.3,0.4-0.8,0.4-1.5
		s-0.1-1.1-0.4-1.5c-0.3-0.3-0.6-0.5-1.1-0.5s-0.9,0.2-1.1,0.5c-0.3,0.3-0.4,0.8-0.4,1.5s0.1,1.1,0.4,1.5c0.3,0.3,0.6,0.5,1.1,0.5
		S278.2,107,278.4,106.6z"/>
	<path d="M283.4,101.9v3.8c0,0.4,0,0.6,0.1,0.8c0.2,0.3,0.4,0.5,0.9,0.5c0.6,0,1-0.2,1.2-0.7c0.1-0.2,0.2-0.6,0.2-1v-3.5h1.7v6.4
		h-1.6v-0.9c0,0-0.1,0.1-0.1,0.2c-0.1,0.1-0.1,0.2-0.2,0.3c-0.3,0.2-0.5,0.4-0.8,0.5c-0.2,0.1-0.5,0.1-0.9,0.1c-0.9,0-1.6-0.3-1.9-1
		c-0.2-0.4-0.3-0.9-0.3-1.7v-3.8H283.4z"/>
	<path d="M288.5,103.2V102h0.9v-1.8h1.7v1.8h1v1.2h-1v3.4c0,0.3,0,0.4,0.1,0.5s0.3,0.1,0.6,0.1c0.1,0,0.1,0,0.2,0s0.1,0,0.2,0v1.2
		l-0.8,0c-0.8,0-1.3-0.1-1.6-0.4c-0.2-0.2-0.3-0.5-0.3-0.9v-3.9H288.5z"/>
	<path d="M297.3,102.1c0.4,0.2,0.8,0.5,1.1,0.9c0.3,0.4,0.4,0.8,0.5,1.3c0,0.3,0.1,0.7,0.1,1.3h-4.7c0,0.6,0.2,1.1,0.7,1.3
		c0.3,0.2,0.6,0.2,0.9,0.2c0.4,0,0.7-0.1,0.9-0.3c0.1-0.1,0.2-0.3,0.3-0.4h1.7c0,0.4-0.3,0.8-0.6,1.2c-0.6,0.6-1.4,0.9-2.4,0.9
		c-0.9,0-1.6-0.3-2.2-0.8c-0.7-0.5-1-1.4-1-2.6c0-1.1,0.3-2,0.9-2.5c0.6-0.6,1.3-0.9,2.3-0.9C296.3,101.8,296.8,101.9,297.3,102.1z
		 M294.8,103.5c-0.2,0.2-0.4,0.6-0.4,1h2.9c0-0.4-0.2-0.8-0.4-1c-0.3-0.2-0.6-0.3-1-0.3C295.3,103.2,295,103.3,294.8,103.5z"/>
	<path d="M301.1,106.3c0,0.3,0.1,0.5,0.2,0.6c0.2,0.2,0.6,0.3,1.2,0.3c0.3,0,0.6,0,0.8-0.1c0.2-0.1,0.3-0.2,0.3-0.4
		c0-0.2-0.1-0.3-0.2-0.4s-0.7-0.3-1.7-0.5c-0.7-0.2-1.2-0.4-1.5-0.7c-0.3-0.3-0.4-0.6-0.4-1.1c0-0.6,0.2-1.1,0.7-1.5
		c0.5-0.4,1.1-0.6,2-0.6c0.8,0,1.4,0.2,2,0.5s0.8,0.9,0.9,1.6h-1.7c0-0.2-0.1-0.4-0.2-0.5c-0.2-0.2-0.5-0.3-0.9-0.3
		c-0.4,0-0.6,0.1-0.8,0.2c-0.2,0.1-0.2,0.2-0.2,0.4c0,0.2,0.1,0.3,0.2,0.4c0.2,0.1,0.7,0.2,1.7,0.5c0.7,0.2,1.2,0.4,1.5,0.7
		c0.3,0.3,0.5,0.7,0.5,1.2c0,0.6-0.2,1.1-0.7,1.5c-0.5,0.4-1.2,0.6-2.2,0.6c-1,0-1.7-0.2-2.2-0.6c-0.5-0.4-0.7-1-0.7-1.6H301.1z"/>
</g>
<g>
	<path d="M284,56.8c0.3,0,0.5-0.1,0.7-0.1c0.2-0.1,0.4-0.3,0.4-0.5c0-0.3-0.1-0.4-0.3-0.5s-0.5-0.1-0.8-0.1c-0.4,0-0.7,0.1-0.8,0.3
		c-0.1,0.1-0.2,0.3-0.2,0.6h-1.6c0-0.6,0.2-1,0.5-1.4c0.4-0.6,1.2-0.8,2.3-0.8c0.7,0,1.3,0.1,1.9,0.4s0.8,0.8,0.8,1.6V59
		c0,0.2,0,0.4,0,0.7c0,0.2,0,0.4,0.1,0.4s0.1,0.1,0.2,0.2v0.2h-1.8c-0.1-0.1-0.1-0.2-0.1-0.4s0-0.2,0-0.4c-0.2,0.2-0.5,0.5-0.8,0.6
		c-0.4,0.2-0.8,0.3-1.2,0.3c-0.6,0-1.1-0.2-1.4-0.5c-0.4-0.3-0.6-0.8-0.6-1.4c0-0.8,0.3-1.4,0.9-1.7c0.3-0.2,0.8-0.3,1.5-0.4
		L284,56.8z M285,57.6c-0.1,0.1-0.2,0.1-0.3,0.2s-0.3,0.1-0.4,0.1l-0.4,0.1c-0.4,0.1-0.6,0.1-0.8,0.2c-0.3,0.2-0.4,0.4-0.4,0.7
		c0,0.3,0.1,0.5,0.2,0.6c0.2,0.1,0.4,0.2,0.6,0.2c0.4,0,0.7-0.1,1-0.3s0.5-0.6,0.5-1.2V57.6z"/>
	<path d="M293.5,55c0.5,0.6,0.8,1.4,0.8,2.4c0,1.1-0.3,2-0.8,2.6c-0.5,0.6-1.2,0.9-2,0.9c-0.5,0-0.9-0.1-1.3-0.4
		c-0.2-0.1-0.4-0.3-0.5-0.6v3.3h-1.7v-8.9h1.6v0.9c0.2-0.3,0.4-0.5,0.6-0.7c0.4-0.3,0.8-0.4,1.3-0.4C292.3,54.1,293,54.4,293.5,55z
		 M292.2,56.2c-0.2-0.4-0.6-0.6-1.1-0.6c-0.6,0-1,0.3-1.3,0.9c-0.1,0.3-0.2,0.7-0.2,1.2c0,0.7,0.2,1.3,0.6,1.6
		c0.2,0.2,0.5,0.3,0.8,0.3c0.5,0,0.8-0.2,1.1-0.5c0.2-0.4,0.4-0.8,0.4-1.4C292.5,57,292.4,56.5,292.2,56.2z"/>
	<path d="M300.8,55c0.5,0.6,0.8,1.4,0.8,2.4c0,1.1-0.3,2-0.8,2.6c-0.5,0.6-1.2,0.9-2,0.9c-0.5,0-0.9-0.1-1.3-0.4
		c-0.2-0.1-0.4-0.3-0.5-0.6v3.3h-1.7v-8.9h1.6v0.9c0.2-0.3,0.4-0.5,0.6-0.7c0.4-0.3,0.8-0.4,1.3-0.4C299.7,54.1,300.3,54.4,300.8,55
		z M299.5,56.2c-0.2-0.4-0.6-0.6-1.1-0.6c-0.6,0-1,0.3-1.3,0.9c-0.1,0.3-0.2,0.7-0.2,1.2c0,0.7,0.2,1.3,0.6,1.6
		c0.2,0.2,0.5,0.3,0.8,0.3c0.5,0,0.8-0.2,1.1-0.5c0.2-0.4,0.4-0.8,0.4-1.4C299.9,57,299.8,56.5,299.5,56.2z"/>
</g>
<g>
	<path d="M270.1,284.1h1.6v4.7l2.1-2.4h2.1l-2.3,2.4l2.4,4h-2l-1.5-2.7l-0.7,0.7v2h-1.6V284.1z"/>
	<path d="M280.9,286.4c0.4,0.2,0.8,0.5,1.1,0.9c0.3,0.4,0.4,0.8,0.5,1.3c0,0.3,0.1,0.7,0.1,1.3H278c0,0.6,0.2,1.1,0.7,1.3
		c0.3,0.2,0.6,0.2,0.9,0.2c0.4,0,0.7-0.1,0.9-0.3c0.1-0.1,0.2-0.3,0.3-0.4h1.7c0,0.4-0.3,0.8-0.6,1.2c-0.6,0.6-1.4,0.9-2.4,0.9
		c-0.9,0-1.6-0.3-2.2-0.8c-0.6-0.5-1-1.4-1-2.6c0-1.1,0.3-2,0.9-2.5c0.6-0.6,1.3-0.9,2.3-0.9C280,286.1,280.5,286.2,280.9,286.4z
		 M278.5,287.9c-0.2,0.2-0.4,0.6-0.4,1h2.9c0-0.4-0.2-0.8-0.4-1s-0.6-0.3-1-0.3C279,287.5,278.7,287.6,278.5,287.9z"/>
	<path d="M286.6,286.3c0.4,0.2,0.7,0.5,1,0.9v-0.9h1.6v6.1c0,0.8-0.1,1.4-0.4,1.9c-0.5,0.7-1.4,1.1-2.7,1.1c-0.8,0-1.5-0.2-2-0.5
		s-0.8-0.8-0.9-1.4h1.8c0,0.2,0.1,0.3,0.2,0.4c0.2,0.2,0.5,0.2,0.9,0.2c0.6,0,1-0.2,1.2-0.6c0.1-0.3,0.2-0.7,0.2-1.3v-0.4
		c-0.2,0.3-0.3,0.5-0.5,0.6c-0.3,0.3-0.8,0.4-1.3,0.4c-0.8,0-1.5-0.3-2-0.9s-0.7-1.4-0.7-2.3c0-0.9,0.2-1.7,0.7-2.4s1.1-1,2-1
		C286.1,286.1,286.4,286.2,286.6,286.3z M287.2,290.9c0.3-0.3,0.4-0.8,0.4-1.4c0-0.6-0.1-1.1-0.4-1.4s-0.6-0.5-1-0.5
		c-0.6,0-1,0.3-1.2,0.8c-0.1,0.3-0.2,0.7-0.2,1.1c0,0.4,0.1,0.7,0.2,1c0.2,0.5,0.6,0.8,1.2,0.8C286.6,291.3,286.9,291.1,287.2,290.9
		z"/>
	<path d="M295.8,292.7h-1.7V284h1.7V292.7z"/>
	<path d="M299.2,285.5h-1.7V284h1.7V285.5z M297.5,286.3h1.7v6.4h-1.7V286.3z"/>
	<path d="M302.1,290.6c0,0.3,0.1,0.5,0.2,0.6c0.2,0.2,0.6,0.3,1.2,0.3c0.3,0,0.6,0,0.8-0.1s0.3-0.2,0.3-0.4c0-0.2-0.1-0.3-0.2-0.4
		c-0.2-0.1-0.7-0.3-1.7-0.5c-0.7-0.2-1.2-0.4-1.5-0.7c-0.3-0.3-0.4-0.6-0.4-1.1c0-0.6,0.2-1.1,0.7-1.5s1.1-0.6,2-0.6
		c0.8,0,1.4,0.2,2,0.5c0.5,0.3,0.8,0.9,0.9,1.6h-1.7c0-0.2-0.1-0.4-0.2-0.5c-0.2-0.2-0.5-0.3-0.9-0.3c-0.4,0-0.6,0.1-0.8,0.2
		s-0.2,0.2-0.2,0.4c0,0.2,0.1,0.3,0.2,0.4c0.2,0.1,0.7,0.2,1.7,0.5c0.7,0.2,1.2,0.4,1.5,0.7c0.3,0.3,0.5,0.7,0.5,1.2
		c0,0.6-0.2,1.1-0.7,1.5s-1.2,0.6-2.2,0.6c-1,0-1.7-0.2-2.2-0.6s-0.7-1-0.7-1.6H302.1z"/>
	<path d="M306.8,287.5v-1.2h0.9v-1.8h1.7v1.8h1v1.2h-1v3.4c0,0.3,0,0.4,0.1,0.5s0.3,0.1,0.6,0.1c0.1,0,0.1,0,0.2,0s0.1,0,0.2,0v1.2
		l-0.8,0c-0.8,0-1.3-0.1-1.6-0.4c-0.2-0.2-0.3-0.5-0.3-0.9v-3.9H306.8z"/>
</g>
<g>
	<path d="M281.4,463.7h1.6v4.7l2.1-2.4h2.1l-2.3,2.4l2.4,4h-2l-1.5-2.7l-0.7,0.7v2h-1.6V463.7z"/>
	<path d="M292.3,466.1c0.4,0.2,0.8,0.5,1.1,0.9c0.3,0.4,0.4,0.8,0.5,1.3c0,0.3,0.1,0.7,0.1,1.3h-4.7c0,0.6,0.2,1.1,0.7,1.3
		c0.3,0.2,0.6,0.2,0.9,0.2c0.4,0,0.7-0.1,0.9-0.3c0.1-0.1,0.2-0.3,0.3-0.4h1.7c0,0.4-0.3,0.8-0.6,1.2c-0.6,0.6-1.4,0.9-2.4,0.9
		c-0.8,0-1.6-0.3-2.2-0.8c-0.6-0.5-1-1.4-1-2.6c0-1.1,0.3-2,0.9-2.5c0.6-0.6,1.3-0.9,2.3-0.9C291.3,465.8,291.8,465.9,292.3,466.1z
		 M289.8,467.5c-0.2,0.2-0.4,0.6-0.4,1h2.9c0-0.4-0.2-0.8-0.4-1s-0.6-0.3-1-0.3C290.4,467.2,290,467.3,289.8,467.5z"/>
	<path d="M298,465.9c0.4,0.2,0.7,0.5,1,0.9v-0.9h1.6v6.1c0,0.8-0.1,1.4-0.4,1.9c-0.5,0.7-1.4,1.1-2.7,1.1c-0.8,0-1.5-0.2-2-0.5
		s-0.8-0.8-0.9-1.4h1.8c0,0.2,0.1,0.3,0.2,0.4c0.2,0.2,0.5,0.2,0.9,0.2c0.6,0,1-0.2,1.2-0.6c0.1-0.3,0.2-0.7,0.2-1.3v-0.4
		c-0.2,0.3-0.3,0.5-0.5,0.6c-0.3,0.3-0.8,0.4-1.3,0.4c-0.8,0-1.5-0.3-2-0.9s-0.7-1.4-0.7-2.3c0-0.9,0.2-1.7,0.7-2.4
		c0.5-0.6,1.1-1,2-1C297.4,465.8,297.7,465.8,298,465.9z M298.5,470.5c0.3-0.3,0.4-0.8,0.4-1.4c0-0.6-0.1-1.1-0.4-1.4
		s-0.6-0.5-1-0.5c-0.6,0-1,0.3-1.2,0.8c-0.1,0.3-0.2,0.7-0.2,1.1c0,0.4,0.1,0.7,0.2,1c0.2,0.5,0.6,0.8,1.2,0.8
		C297.9,471,298.3,470.8,298.5,470.5z"/>
</g>
<g>
	<path d="M160.3,209.8h-1v1.8h-1.6v-1.8h-3.4v-1.5l3.1-5.2h1.9v5.3h1V209.8z M157.7,208.5v-3.7l-2.1,3.7H157.7z"/>
	<path d="M166.3,204.3c0.4,0.8,0.7,1.8,0.7,3.2s-0.2,2.5-0.7,3.2s-1.2,1.1-2.3,1.1s-1.8-0.4-2.3-1.1s-0.7-1.8-0.7-3.2
		s0.2-2.5,0.7-3.2s1.2-1.1,2.3-1.1S165.8,203.5,166.3,204.3z M163,209.7c0.2,0.5,0.5,0.8,1,0.8s0.8-0.3,1-0.8s0.2-1.3,0.2-2.2
		c0-1-0.1-1.8-0.2-2.3s-0.5-0.7-1-0.7s-0.8,0.2-1,0.7s-0.2,1.2-0.2,2.3C162.8,208.5,162.8,209.2,163,209.7z"/>
	<path d="M173.6,209.8h-1v1.8H171v-1.8h-3.4v-1.5l3.1-5.2h1.9v5.3h1V209.8z M171,208.5v-3.7l-2.1,3.7H171z"/>
	<path d="M182.3,205.4c0.4,0.2,0.8,0.5,1.1,0.9c0.3,0.4,0.4,0.8,0.5,1.3c0,0.3,0.1,0.7,0.1,1.3h-4.7c0,0.6,0.2,1.1,0.7,1.3
		c0.3,0.2,0.6,0.2,0.9,0.2c0.4,0,0.7-0.1,0.9-0.3c0.1-0.1,0.2-0.3,0.3-0.4h1.7c0,0.4-0.3,0.8-0.6,1.2c-0.6,0.6-1.4,0.9-2.4,0.9
		c-0.9,0-1.6-0.3-2.2-0.8c-0.6-0.5-1-1.4-1-2.6c0-1.1,0.3-2,0.9-2.5c0.6-0.6,1.3-0.9,2.3-0.9C181.4,205.1,181.9,205.2,182.3,205.4z
		 M179.8,206.9c-0.2,0.2-0.4,0.6-0.4,1h2.9c0-0.4-0.2-0.8-0.4-1s-0.6-0.3-1-0.3C180.4,206.5,180,206.6,179.8,206.9z"/>
	<path d="M188.4,205.1c0,0,0.1,0,0.1,0v1.7c-0.1,0-0.2,0-0.3,0s-0.1,0-0.2,0c-0.7,0-1.1,0.2-1.4,0.7c-0.1,0.2-0.2,0.6-0.2,1.1v3.1
		h-1.7v-6.4h1.6v1.1c0.3-0.4,0.5-0.7,0.7-0.9C187.4,205.3,187.8,205.1,188.4,205.1C188.3,205.1,188.3,205.1,188.4,205.1z"/>
	<path d="M193,205.1c0,0,0.1,0,0.1,0v1.7c-0.1,0-0.2,0-0.3,0s-0.1,0-0.2,0c-0.7,0-1.1,0.2-1.4,0.7c-0.1,0.2-0.2,0.6-0.2,1.1v3.1
		h-1.7v-6.4h1.6v1.1c0.3-0.4,0.5-0.7,0.7-0.9C192,205.3,192.4,205.1,193,205.1C193,205.1,193,205.1,193,205.1z"/>
	<path d="M199.5,210.9c-0.5,0.7-1.4,1-2.5,1s-1.9-0.3-2.5-1s-0.8-1.5-0.8-2.4c0-0.9,0.3-1.7,0.8-2.4c0.5-0.7,1.4-1,2.5-1
		s1.9,0.3,2.5,1c0.5,0.7,0.8,1.5,0.8,2.4C200.3,209.4,200,210.2,199.5,210.9z M198.1,210c0.3-0.3,0.4-0.8,0.4-1.5s-0.1-1.1-0.4-1.5
		c-0.3-0.3-0.6-0.5-1.1-0.5s-0.9,0.2-1.1,0.5c-0.3,0.3-0.4,0.8-0.4,1.5s0.1,1.1,0.4,1.5c0.3,0.3,0.6,0.5,1.1,0.5
		S197.9,210.3,198.1,210z"/>
	<path d="M205,205.1c0,0,0.1,0,0.1,0v1.7c-0.1,0-0.2,0-0.3,0s-0.1,0-0.2,0c-0.7,0-1.1,0.2-1.4,0.7c-0.1,0.2-0.2,0.6-0.2,1.1v3.1
		h-1.7v-6.4h1.6v1.1c0.3-0.4,0.5-0.7,0.7-0.9C204,205.3,204.4,205.1,205,205.1C205,205.1,205,205.1,205,205.1z"/>
</g>
<g>
	<path d="M54.3,251.7c0.4,0.2,0.8,0.5,1.1,0.9c0.3,0.4,0.4,0.8,0.5,1.3c0,0.3,0.1,0.7,0.1,1.3h-4.7c0,0.6,0.2,1.1,0.7,1.3
		c0.3,0.2,0.6,0.2,0.9,0.2c0.4,0,0.7-0.1,0.9-0.3c0.1-0.1,0.2-0.3,0.3-0.4h1.7c0,0.4-0.3,0.8-0.6,1.2c-0.6,0.6-1.4,0.9-2.4,0.9
		c-0.9,0-1.6-0.3-2.2-0.8c-0.6-0.5-1-1.4-1-2.6c0-1.1,0.3-2,0.9-2.5c0.6-0.6,1.3-0.9,2.3-0.9C53.3,251.4,53.8,251.5,54.3,251.7z
		 M51.8,253.2c-0.2,0.2-0.4,0.6-0.4,1h2.9c0-0.4-0.2-0.8-0.4-1s-0.6-0.3-1-0.3C52.3,252.8,52,252.9,51.8,253.2z"/>
	<path d="M60.2,251.7c0.3,0.2,0.5,0.4,0.7,0.7v-3h1.7v8.6H61v-0.9c-0.2,0.4-0.5,0.7-0.8,0.8s-0.7,0.3-1.1,0.3
		c-0.7,0-1.4-0.3-1.9-0.9s-0.8-1.4-0.8-2.3c0-1.1,0.3-1.9,0.8-2.6s1.2-0.9,2-0.9C59.5,251.5,59.9,251.5,60.2,251.7z M60.6,256.3
		c0.2-0.4,0.4-0.8,0.4-1.4c0-0.8-0.2-1.3-0.6-1.7c-0.2-0.2-0.5-0.3-0.8-0.3c-0.5,0-0.8,0.2-1.1,0.6s-0.3,0.8-0.3,1.4
		c0,0.6,0.1,1.1,0.3,1.4s0.6,0.5,1.1,0.5S60.3,256.6,60.6,256.3z"/>
	<path d="M65.8,250.9h-1.7v-1.5h1.7V250.9z M64.1,251.6h1.7v6.4h-1.7V251.6z"/>
	<path d="M66.8,252.9v-1.2h0.9v-1.8h1.7v1.8h1v1.2h-1v3.4c0,0.3,0,0.4,0.1,0.5s0.3,0.1,0.6,0.1c0.1,0,0.1,0,0.2,0s0.1,0,0.2,0v1.2
		l-0.8,0c-0.8,0-1.3-0.1-1.6-0.4c-0.2-0.2-0.3-0.5-0.3-0.9v-3.9H66.8z"/>
	<path d="M74.8,249.4h1.6v4.7l2.1-2.4h2.1l-2.3,2.4l2.4,4h-2l-1.5-2.7l-0.7,0.7v2h-1.6V249.4z"/>
	<path d="M85.6,251.7c0.4,0.2,0.8,0.5,1.1,0.9c0.3,0.4,0.4,0.8,0.5,1.3c0,0.3,0.1,0.7,0.1,1.3h-4.7c0,0.6,0.2,1.1,0.7,1.3
		c0.3,0.2,0.6,0.2,0.9,0.2c0.4,0,0.7-0.1,0.9-0.3c0.1-0.1,0.2-0.3,0.3-0.4h1.7c0,0.4-0.3,0.8-0.6,1.2c-0.6,0.6-1.4,0.9-2.4,0.9
		c-0.9,0-1.6-0.3-2.2-0.8c-0.6-0.5-1-1.4-1-2.6c0-1.1,0.3-2,0.9-2.5c0.6-0.6,1.3-0.9,2.3-0.9C84.7,251.4,85.2,251.5,85.6,251.7z
		 M83.1,253.2c-0.2,0.2-0.4,0.6-0.4,1h2.9c0-0.4-0.2-0.8-0.4-1s-0.6-0.3-1-0.3C83.7,252.8,83.4,252.9,83.1,253.2z"/>
	<path d="M91.3,251.6c0.4,0.2,0.7,0.5,1,0.9v-0.9h1.6v6.1c0,0.8-0.1,1.4-0.4,1.9c-0.5,0.7-1.4,1.1-2.7,1.1c-0.8,0-1.5-0.2-2-0.5
		s-0.8-0.8-0.9-1.4h1.8c0,0.2,0.1,0.3,0.2,0.4c0.2,0.2,0.5,0.2,0.9,0.2c0.6,0,1-0.2,1.2-0.6c0.1-0.3,0.2-0.7,0.2-1.3V257
		c-0.2,0.3-0.3,0.5-0.5,0.6c-0.3,0.3-0.8,0.4-1.3,0.4c-0.8,0-1.5-0.3-2-0.9s-0.7-1.4-0.7-2.3c0-0.9,0.2-1.7,0.7-2.4s1.1-1,2-1
		C90.8,251.5,91,251.5,91.3,251.6z M91.9,256.2c0.3-0.3,0.4-0.8,0.4-1.4c0-0.6-0.1-1.1-0.4-1.4s-0.6-0.5-1-0.5c-0.6,0-1,0.3-1.2,0.8
		c-0.1,0.3-0.2,0.7-0.2,1.1c0,0.4,0.1,0.7,0.2,1c0.2,0.5,0.6,0.8,1.2,0.8C91.3,256.6,91.6,256.5,91.9,256.2z"/>
</g>
<g>
	<path d="M486.3,254.4c0.3,0,0.5-0.1,0.7-0.1c0.2-0.1,0.4-0.3,0.4-0.5c0-0.3-0.1-0.4-0.3-0.5s-0.5-0.1-0.8-0.1
		c-0.4,0-0.7,0.1-0.8,0.3c-0.1,0.1-0.2,0.3-0.2,0.6h-1.6c0-0.6,0.2-1,0.5-1.4c0.4-0.6,1.2-0.8,2.3-0.8c0.7,0,1.3,0.1,1.9,0.4
		c0.5,0.3,0.8,0.8,0.8,1.6v2.9c0,0.2,0,0.4,0,0.7c0,0.2,0,0.4,0.1,0.4s0.1,0.1,0.2,0.2v0.2h-1.8c-0.1-0.1-0.1-0.2-0.1-0.4
		s0-0.2,0-0.4c-0.2,0.2-0.5,0.5-0.8,0.6c-0.4,0.2-0.8,0.3-1.2,0.3c-0.6,0-1.1-0.2-1.4-0.5s-0.6-0.8-0.6-1.4c0-0.8,0.3-1.4,0.9-1.7
		c0.3-0.2,0.8-0.3,1.5-0.4L486.3,254.4z M487.3,255.2c-0.1,0.1-0.2,0.1-0.3,0.2c-0.1,0-0.3,0.1-0.4,0.1l-0.4,0.1
		c-0.4,0.1-0.6,0.1-0.8,0.2c-0.3,0.2-0.4,0.4-0.4,0.7c0,0.3,0.1,0.5,0.2,0.6c0.2,0.1,0.4,0.2,0.6,0.2c0.4,0,0.7-0.1,1-0.3
		c0.3-0.2,0.5-0.6,0.5-1.2V255.2z"/>
	<path d="M493.8,252c0.3,0.2,0.5,0.4,0.7,0.7v-3h1.7v8.6h-1.6v-0.9c-0.2,0.4-0.5,0.7-0.8,0.8s-0.7,0.3-1.1,0.3
		c-0.7,0-1.4-0.3-1.9-0.9s-0.8-1.4-0.8-2.3c0-1.1,0.3-1.9,0.8-2.6s1.2-0.9,2-0.9C493.2,251.8,493.5,251.9,493.8,252z M494.2,256.6
		c0.2-0.4,0.4-0.8,0.4-1.4c0-0.8-0.2-1.3-0.6-1.7c-0.2-0.2-0.5-0.3-0.8-0.3c-0.5,0-0.8,0.2-1.1,0.6s-0.3,0.8-0.3,1.4
		c0,0.6,0.1,1.1,0.3,1.4s0.6,0.5,1.1,0.5S494,257,494.2,256.6z"/>
	<path d="M501.2,252c0.3,0.2,0.5,0.4,0.7,0.7v-3h1.7v8.6H502v-0.9c-0.2,0.4-0.5,0.7-0.8,0.8s-0.7,0.3-1.1,0.3
		c-0.7,0-1.4-0.3-1.9-0.9s-0.8-1.4-0.8-2.3c0-1.1,0.3-1.9,0.8-2.6s1.2-0.9,2-0.9C500.5,251.8,500.9,251.9,501.2,252z M501.6,256.6
		c0.2-0.4,0.4-0.8,0.4-1.4c0-0.8-0.2-1.3-0.6-1.7c-0.2-0.2-0.5-0.3-0.8-0.3c-0.5,0-0.8,0.2-1.1,0.6s-0.3,0.8-0.3,1.4
		c0,0.6,0.1,1.1,0.3,1.4s0.6,0.5,1.1,0.5S501.3,257,501.6,256.6z"/>
	<path d="M508.4,249.7h1.6v4.7l2.1-2.4h2.1l-2.3,2.4l2.4,4h-2l-1.5-2.7l-0.7,0.7v2h-1.6V249.7z"/>
	<path d="M519.3,252.1c0.4,0.2,0.8,0.5,1.1,0.9c0.3,0.4,0.4,0.8,0.5,1.3c0,0.3,0.1,0.7,0.1,1.3h-4.7c0,0.6,0.2,1.1,0.7,1.3
		c0.3,0.2,0.6,0.2,0.9,0.2c0.4,0,0.7-0.1,0.9-0.3c0.1-0.1,0.2-0.3,0.3-0.4h1.7c0,0.4-0.3,0.8-0.6,1.2c-0.6,0.6-1.4,0.9-2.4,0.9
		c-0.9,0-1.6-0.3-2.2-0.8c-0.7-0.5-1-1.4-1-2.6c0-1.1,0.3-2,0.9-2.5c0.6-0.6,1.3-0.9,2.3-0.9C518.3,251.8,518.8,251.9,519.3,252.1z
		 M516.8,253.5c-0.2,0.2-0.4,0.6-0.4,1h2.9c0-0.4-0.2-0.8-0.4-1c-0.3-0.2-0.6-0.3-1-0.3C517.4,253.2,517,253.3,516.8,253.5z"/>
	<path d="M525,251.9c0.4,0.2,0.7,0.5,1,0.9v-0.9h1.6v6.1c0,0.8-0.1,1.4-0.4,1.9c-0.5,0.7-1.4,1.1-2.7,1.1c-0.8,0-1.5-0.2-2-0.5
		s-0.8-0.8-0.9-1.4h1.8c0,0.2,0.1,0.3,0.2,0.4c0.2,0.2,0.5,0.2,0.9,0.2c0.6,0,1-0.2,1.2-0.6c0.1-0.3,0.2-0.7,0.2-1.3v-0.4
		c-0.2,0.3-0.3,0.5-0.5,0.6c-0.3,0.3-0.8,0.4-1.3,0.4c-0.8,0-1.5-0.3-2-0.9s-0.7-1.4-0.7-2.3c0-0.9,0.2-1.7,0.7-2.4s1.1-1,2-1
		C524.4,251.8,524.7,251.8,525,251.9z M525.5,256.5c0.3-0.3,0.4-0.8,0.4-1.4c0-0.6-0.1-1.1-0.4-1.4c-0.3-0.3-0.6-0.5-1-0.5
		c-0.6,0-1,0.3-1.2,0.8c-0.1,0.3-0.2,0.7-0.2,1.1c0,0.4,0.1,0.7,0.2,1c0.2,0.5,0.6,0.8,1.2,0.8C524.9,257,525.3,256.8,525.5,256.5z"
		/>
</g>
<rect x="468" y="46" class="st0" width="72" height="36"/>
<line class="st0" x1="432" y1="63" x2="468" y2="63"/>
<g>
	<path d="M490.4,59.6c0.3,0.1,0.6,0.3,0.8,0.6c0.2,0.2,0.3,0.5,0.3,0.7s0.1,0.7,0.1,1.2V66h-1.7v-3.9c0-0.3-0.1-0.6-0.2-0.8
		c-0.2-0.3-0.4-0.4-0.9-0.4c-0.4,0-0.8,0.1-1,0.4c-0.2,0.3-0.3,0.7-0.3,1.3V66h-1.7v-8.6h1.7v3c0.2-0.4,0.5-0.6,0.8-0.8
		c0.3-0.1,0.7-0.2,1-0.2C489.7,59.4,490,59.5,490.4,59.6z"/>
	<path d="M497.3,59.7c0.4,0.2,0.8,0.5,1.1,0.9c0.3,0.4,0.4,0.8,0.5,1.3c0,0.3,0.1,0.7,0.1,1.3h-4.7c0,0.6,0.2,1.1,0.7,1.3
		c0.3,0.2,0.6,0.2,0.9,0.2c0.4,0,0.7-0.1,0.9-0.3c0.1-0.1,0.2-0.3,0.3-0.4h1.7c0,0.4-0.3,0.8-0.6,1.2c-0.6,0.6-1.4,0.9-2.4,0.9
		c-0.9,0-1.6-0.3-2.2-0.8s-1-1.4-1-2.6c0-1.1,0.3-2,0.9-2.5s1.3-0.9,2.3-0.9C496.3,59.4,496.8,59.5,497.3,59.7z M494.8,61.2
		c-0.2,0.2-0.4,0.6-0.4,1h2.9c0-0.4-0.2-0.8-0.4-1c-0.3-0.2-0.6-0.3-1-0.3C495.3,60.8,495,60.9,494.8,61.2z"/>
	<path d="M502.3,62.1c0.3,0,0.5-0.1,0.7-0.1c0.2-0.1,0.4-0.3,0.4-0.5c0-0.3-0.1-0.4-0.3-0.5c-0.2-0.1-0.5-0.1-0.8-0.1
		c-0.4,0-0.7,0.1-0.8,0.3c-0.1,0.1-0.2,0.3-0.2,0.6h-1.6c0-0.6,0.2-1,0.5-1.4c0.4-0.6,1.2-0.8,2.3-0.8c0.7,0,1.3,0.1,1.9,0.4
		c0.5,0.3,0.8,0.8,0.8,1.6v2.9c0,0.2,0,0.4,0,0.7c0,0.2,0,0.4,0.1,0.4s0.1,0.1,0.2,0.2V66h-1.8c-0.1-0.1-0.1-0.2-0.1-0.4
		s0-0.2,0-0.4c-0.2,0.2-0.5,0.5-0.8,0.6c-0.4,0.2-0.8,0.3-1.2,0.3c-0.6,0-1.1-0.2-1.4-0.5c-0.4-0.3-0.6-0.8-0.6-1.4
		c0-0.8,0.3-1.4,0.9-1.7c0.3-0.2,0.8-0.3,1.5-0.4L502.3,62.1z M503.3,62.9c-0.1,0.1-0.2,0.1-0.3,0.2c-0.1,0-0.3,0.1-0.4,0.1
		l-0.4,0.1c-0.4,0.1-0.6,0.1-0.8,0.2c-0.3,0.2-0.4,0.4-0.4,0.7c0,0.3,0.1,0.5,0.2,0.6c0.2,0.1,0.4,0.2,0.6,0.2c0.4,0,0.7-0.1,1-0.3
		c0.3-0.2,0.5-0.6,0.5-1.2V62.9z"/>
	<path d="M509.8,59.7c0.3,0.2,0.5,0.4,0.7,0.7v-3h1.7V66h-1.6v-0.9c-0.2,0.4-0.5,0.7-0.8,0.8s-0.7,0.3-1.1,0.3
		c-0.7,0-1.4-0.3-1.9-0.9S506,63.9,506,63c0-1.1,0.3-1.9,0.8-2.6s1.2-0.9,2-0.9C509.2,59.5,509.5,59.5,509.8,59.7z M510.3,64.3
		c0.2-0.4,0.4-0.8,0.4-1.4c0-0.8-0.2-1.3-0.6-1.7c-0.2-0.2-0.5-0.3-0.8-0.3c-0.5,0-0.8,0.2-1.1,0.6s-0.3,0.8-0.3,1.4
		c0,0.6,0.1,1.1,0.3,1.4s0.6,0.5,1.1,0.5S510,64.6,510.3,64.3z"/>
	<path d="M517.9,59.7c0.4,0.2,0.8,0.5,1.1,0.9c0.3,0.4,0.4,0.8,0.5,1.3c0,0.3,0.1,0.7,0.1,1.3H515c0,0.6,0.2,1.1,0.7,1.3
		c0.3,0.2,0.6,0.2,0.9,0.2c0.4,0,0.7-0.1,0.9-0.3c0.1-0.1,0.2-0.3,0.3-0.4h1.7c0,0.4-0.3,0.8-0.6,1.2c-0.6,0.6-1.4,0.9-2.4,0.9
		c-0.9,0-1.6-0.3-2.2-0.8s-1-1.4-1-2.6c0-1.1,0.3-2,0.9-2.5s1.3-0.9,2.3-0.9C517,59.4,517.5,59.5,517.9,59.7z M515.5,61.2
		c-0.2,0.2-0.4,0.6-0.4,1h2.9c0-0.4-0.2-0.8-0.4-1c-0.3-0.2-0.6-0.3-1-0.3C516,60.8,515.7,60.9,515.5,61.2z"/>
	<path d="M524,59.5c0,0,0.1,0,0.1,0v1.7c-0.1,0-0.2,0-0.3,0s-0.1,0-0.2,0c-0.7,0-1.1,0.2-1.4,0.7c-0.1,0.2-0.2,0.6-0.2,1.1V66h-1.7
		v-6.4h1.6v1.1c0.3-0.4,0.5-0.7,0.7-0.9C523,59.6,523.4,59.5,524,59.5C524,59.5,524,59.5,524,59.5z"/>
</g>
<line class="st0" x1="180" y1="108" x2="180" y2="171"/>
</svg>
